<?xml version="1.0" encoding="utf-8"?>
<!-- Generator: Adobe Illustrator 26.5.3, SVG Export Plug-In . SVG Version: 6.00 Build 0)  -->
<svg version="1.1" id="Layer_1" xmlns="http://www.w3.org/2000/svg" xmlns:xlink="http://www.w3.org/1999/xlink" x="0px" y="0px"
	 viewBox="0 0 599.8 608.1" style="enable-background:new 0 0 599.8 608.1;" xml:space="preserve">
<style type="text/css">
	.st0{fill:#FFFFFF;}
	.st1{fill:#EF4723;}
	.st2{fill:#FFFFFF;}
	.st3{fill:#EF4723;}
	.st4{fill:#FFFFFF;}
</style>
<path class="st2" d="M29.7,303.2c0.4-71.9,24.5-134.7,72.9-187.9c36-39.5,80.6-64.4,132.1-77.5c26.8-6.8,54-8.6,81.6-7.2
	c30.2,1.5,59.4,7.5,87.3,19.2c37.4,15.6,69.9,38.2,96.9,68.6c18.4,20.8,33.8,43.5,45.4,68.7c11.7,25.5,19,52.2,22.1,80.1
	c4.5,40.1,1.7,79.6-10.2,118.1c-16.2,52.4-45.2,96.6-87.5,131.7c-32.5,27-69.6,45-110.7,54.4c-22.5,5.1-45.4,7.5-68.5,6.4
	c-78.1-3.5-143.1-34.7-194.6-93.4C64.6,448,44.5,405.6,35,358.3C31.3,340.2,29.5,321.8,29.7,303.2z M430.1,297.7
	c0.7,0,1.2,0.1,1.8,0.1c20.9-1.8,41.9-3.6,62.8-5.3c14.1-1.2,28.2-2.3,42.2-3.5c3.4-0.3,5.1-2.7,4.8-6.1c-1.5-16.7-4-33.3-8.6-49.5
	c-23.8-83.5-91.2-148.1-172.4-167.8c-27.7-6.7-55.6-9.1-84.1-6.3c-22.9,2.3-44.9,7.6-66.2,16.3c-49.1,20.1-88.5,52-116.4,97.4
	c-21.8,35.5-34,74.1-36.4,115.8c-1.6,28.9,1.3,57.3,9.3,85c7.5,26.1,19.5,50.1,34.7,72.5c2,3,4.1,6,6.2,9c-0.2-2.8-1-5.3-1.7-7.9
	c-4.4-18-7.5-36.3-8.7-54.8c-1.2-17.6,0.1-35,3.7-52.2c3.5-16.4,9.9-31.7,18-46.4c3.6-6.6,6.6-13.7,8.4-21c7-29,22.3-52.4,46.6-69.8
	c8-5.7,15.8-11.6,21.9-19.5c9.8-12.7,21.7-23.1,35-32c17.6-11.7,33.4-25.5,45.3-43.3c5.6-8.4,12.2-16,20.9-21.4
	c18.7-11.8,39.7-11.2,56,5.8c7.4,7.8,12.7,16.9,16.8,26.8c2.2,5.2,4.9,10.4,8.3,14.8c7.3,9.5,9.9,19.6,6.4,31.1
	c-3.2,10.7-2.8,11.8,6,18.7c9.3,7.4,17.5,15.9,23.7,26.1c13.3,21.8,15.2,46.1,15.5,70.8C430.2,286.6,430.1,292.1,430.1,297.7z
	 M546.2,298c-4.1,0.3-7.5,0.6-10.9,0.9c-33.3,3-66.5,5.9-99.8,8.9c-17.4,1.6-34.9,3.2-52.3,4.8c-4.4,0.4-5.9,1.6-7,5.9
	c-3.8,15-7.6,30-11.4,45c-8,31.7-16,63.3-24,95c-0.8,3,0,3.9,3.1,3.6c4.6-0.4,9.3-1,13.9-1.5c22-2.5,44-5.1,66.1-7.6
	c26.5-3,53.1-6.2,79.7-8.8c15.7-1.5,12.8-4.4,16.5-14.4c0-0.1,0-0.2,0.1-0.3c8.1-31.4,16.3-62.7,24.4-94.1
	c2.4-9.5,4.8-18.9,7.1-28.4C553.1,301.3,550.8,298,546.2,298z M180.2,403.9c0,0.2-0.1,0.4-0.1,0.6c3.7,0.8,7.3,2,11,2.2
	c12.5,0.5,25,0.3,37.5,0.9c4.4,0.2,8.9,1.6,13.1,3.2c3.3,1.3,6.3,3.5,9.3,5.5c6.6,4.2,13.4,4.9,20.6,1.8c2-0.9,4.1-1.6,5.1-2
	c8.6,7.5,16.8,14.5,24.7,21.3c4.1-15.2-4.6-26.2-16.7-36c4.7,0.9,9.3,1.8,13,4.1c8.2,5.2,10.9,13.5,10.9,22.9c0,4.8,2.7,7.8,6.4,7.7
	c2.8-0.1,5.1-3.6,4.8-7.8c-0.7-13-5.7-23.9-15.8-32.2c-1.1-0.9-2.1-1.8-3.1-2.7c0.2-0.2,0.3-0.5,0.5-0.7c3.4,1.7,7.2,2.9,10,5.3
	c7.9,6.9,13.7,15.2,14.9,26.1c0.3,2.5,1.6,5.2,3.3,7.1c2.6,3.1,6.8,2.1,7.8-1.9c0.6-2.2,0.7-4.6,0.3-6.9
	c-1.5-8.9-6.5-16.1-11.9-23.1c-1.6-2.1-3.2-4.1-4.7-6.2c0.3-0.2,0.6-0.5,0.9-0.7c9.5,5.5,15.9,13.7,20.8,23.6c1.1-3,1.6-5.8,2.5-8.6
	c0.7-2,0.4-3.5-1-5.1c-5.6-6.1-10.9-12.5-16.7-18.4c-3.6-3.7-7.7-7.5-13-7.6c-8.1-0.1-16.2,0.9-24.3,1.4c-2.6,0.2-5.4,0.7-7.9,0.3
	c-12.6-2.1-24.7-5.9-36.2-11.4c-11-5.3-21.8-11-32.7-16.5c-0.1-0.1-0.1-0.4-0.1-0.7c10-2.7,17.8-8.7,23.9-16.7
	c18-23.6,24.7-50.3,20.8-79.7c-0.3-2.5-0.9-4.9-1.3-7.4c1.1,0.6,1.7,1.4,2.3,2.2c11.6,16.3,16.3,34.9,17.3,54.5
	c0.3,6.7,3.4,11.8,8.4,15.8c5.3,4.3,9.7,2.8,11.4-3.7c3.6-13.5,3-27.1-0.4-40.4c-4.8-18.8-14.6-35-27.5-49.3
	c-12-13.4-18.9-28.5-17.2-46.8c0.1-0.6-0.2-1.2-0.3-1.8c-0.4,0-0.8,0-1.2,0.1c0,8,0,16,0,24c-6.3-11-6.2-23-6.2-35.1
	c-6.3,9.6-15.3,15.4-25.4,20c3.7-5.5,7.3-11,11-16.4c-0.3-0.2-0.6-0.4-0.9-0.6c-13.8,7.9-23,19.9-31.3,33.8
	c9.9-4.6,19.1-8.9,28.3-13.2c-0.6,1.7-1.6,3.1-2.7,4.1c-7.1,6.3-13.9,13-21.4,18.6c-23.8,17.8-38.7,41-43.1,70.6
	c-0.7,4.7-0.5,9.4-0.8,14.6c3-10.3,5.7-20.2,8.7-29.9c2.6-8.4,11.5-19.6,18.4-22.8c-3,7.7-6.8,15.6-9.2,23.9
	c-2.4,8.3-3.7,17-5.3,25.5c-1.4,7.3,0.2,22.2,2.4,25.3c-0.7-17.3,2.3-33.8,9.8-49.4c-1.8,28.6-0.2,56.3,17.4,80.8
	c-0.9,0.2-1.7,0.4-2.6,0.5c-7.5,1.5-14.4,4-19.8,9.7c-4,4.2-4.5,8.5-1.5,13.4c3.3,5.5,8,9.4,13.7,12c0.9,0.4,1.7,0.9,2.5,1.4
	c-0.1,0.4-0.2,0.8-0.4,1.3c-9.9-1.7-19.8-3.4-30.7-5.3c3.8,2.3,6.9,4.4,10.2,6c11.2,5.4,23.4,6.9,35.6,7.8c2.6,0.2,5.3,0.5,7.9,0.7
	c0,0.4,0,0.7,0,1.1c-5.5,1.2-11,2.7-16.6,3.6C191.4,403.3,185.8,403.4,180.2,403.9z M385.9,192.6c-0.6,7.5-1.2,14.5-1.8,21.5
	c-2.8,32.7-17,59.6-41.9,80.7c-7.1,6-15,11-22.7,16.3c-4.2,2.9-5.3,4.7-4,8.7c8.5-0.5,15.8-4.6,23.3-8.3c0.2,0.4,0.4,0.7,0.6,1.1
	c-7.8,4.9-15.6,9.9-23.5,14.9c1.8,2.4,3.9,1.6,5.8,0.9c10.4-3.6,20.1-8.7,28.9-15.3c0.8-0.6,1.8-1,2.7-1.5c0.2,0.4,0.5,0.7,0.7,1.1
	c-11.1,8.7-22.2,17.4-33.4,26.2c3.5,2.3,6.4,0.4,9-1c25-14,42.7-34.4,53.5-60.8c3.3-8.2,6-16.6,9.2-25.6c0.7,5.1,2.1,9.8,1.8,14.4
	c-0.7,10.6-2,21.1-3.3,31.7c-0.3,2.7,0.3,3.6,3.1,3.3c5.7-0.6,11.4-1.1,17.1-1.4c2.5-0.1,3.5-0.9,3.6-3.5
	c0.5-12.2,1.5-24.5,1.6-36.7c0-13.9-2.5-27.4-8.5-40.1C402.9,208.5,395.7,199.6,385.9,192.6z M301.2,196.4c2.8-5.1,3.9-9.1,0.8-13.5
	c-2.1-3-3.8-6.4-5.1-9.9c-2.2-5.6-2.2-11.2,1.9-16.2c4.4-5.2,10.2-5.7,16.3-4.3c5.9,1.4,11.6,3.3,17.4,5.2
	c8.5,2.7,16.6,3.6,24.6-2.1c5.1-3.6,11.3-5.5,18.6-3.6c-0.6-2.8-0.6-5.6-1.8-7.6c-3.9-6.5-7.9-12.9-12.6-18.9
	c-5.8-7.4-12.4-14.2-18.6-21.2c0.2-0.3,0.4-0.7,0.6-1c3.3,1.6,6.5,3.3,9.6,4.8c-4.5-12-16-20.5-31.9-20.4
	c-13.6,0.1-31.4,14.9-33.8,27.2c5.9-4.2,12.1-9.5,19.2-13.4c7.2-4,15.3-4.9,23.9-1.4c-13.2,4-26.8,18-26.5,26.7
	c3.3-0.3,6.7-1.4,9.9-0.8c5.5,1.1,11.1,2.7,16.2,5c5.1,2.2,10.1,4.1,15.8,3.5c2-0.2,4.1,0,6.1,0c-1.3,1.3-2.7,1.8-4.2,2.3
	c-8.5,2.8-17.1,1.7-25.5,0c-7.3-1.5-13.6-0.3-19.1,4.8c-7.4,6.8-12.6,15-15.5,24.6c-3.9,12.9-0.1,27.1,9,35.1
	c-0.9-6.1-1.8-12.4-2.8-18.7c0.3-0.1,0.6-0.1,0.9-0.2C296.7,186.8,298.8,191.2,301.2,196.4z M373.9,223.4c2.2-8.7,0.8-16.7-1.2-24.6
	c-0.6-2.5-0.8-5.2-0.6-7.8c0.4-4.7,1.3-9.4,2.1-14.3c-2.8,1.5-5.4,3-6.9,3.7c-4-1.8-6.9-4.1-10-4.2c-8.3-0.4-16.7-1-24.9,2.3
	c-3.3,1.3-7.3,0.9-11,1.1c-1.3,0.1-2.6-0.1-3.9-0.2c-0.1,0.5-0.3,0.9-0.4,1.4c3.8,1.6,7.7,3.2,12,4.9c-1.9,3.7-4.1,7.7-5.9,11.8
	c-2.4,5.5-5.5,11-6.6,16.8c-2.1,10.6,1.5,24.3,15.9,28.6c5.2,1.6,11,1.7,16.5,1.8c5.8,0.1,11.2-2.1,15.8-5.7
	c3.2-2.5,5.8-5.6,7.1-9.8c-8.8-3.7-17.5-3.6-26.4-2.4c-5.5,0.7-11.1,2.3-16.6-0.5C343.6,222.8,358.3,218.5,373.9,223.4z
	 M324.1,441.8c-4,5.1-7.4,6.1-13.8,4.2c-1.1-0.3-2.6,0-3.6,0.6c-6.1,4.1-10.6,4-16.2-0.8c-2.3-2-4.3-4.4-6.6-6.3
	c-1-0.8-2.6-1.4-3.9-1.3c-7.1,0.6-14.1,1.5-21.2,2.3c-5.4,0.6-10.9,1.2-16.3,2c-0.9,0.1-1.6,1.5-2.5,2.3c0.7,0.7,1.4,1.6,2.2,2.2
	c0.5,0.4,1.3,0.4,2,0.6c17.4,4,34.9,7.9,52.3,12c9.3,2.2,18.6,4.5,27.8,6.7c2.5,0.6,5,0.6,5.8-2.2c1.9-6.7,3.5-13.6,5.1-20.1
	C331.5,443.2,328.1,442.5,324.1,441.8z M213.8,440c0.6,1.1,1.1,2.2,1.7,3.4c5.5,11.2,10.5,22.5,13.2,34.8
	c2.3,10.6,1.1,20.6-4.7,29.8c-0.4,0.6-0.7,1.2-1.2,2.3c1-0.4,1.5-0.5,1.9-0.7c13.7-7.5,18.9-24.8,12-39.8
	C231.2,458.3,221.9,449.6,213.8,440z M144.2,362.2c-9.1,8.8-20.6,47.3-20.4,57.8C132.2,400.8,140.3,382.2,144.2,362.2z M137.4,460.4
	c0.4,0.1,0.9,0.2,1.3,0.3c3-11.6,6.1-23.2,9-34.8c1.1-4.4,1.8-9-0.1-13.6C142.1,428,138.5,443.9,137.4,460.4z M139.2,349.4
	c-0.4-0.2-0.8-0.3-1.2-0.5c-9.9,14.1-15.4,29.7-17.3,46.8c0.3,0.1,0.6,0.2,0.9,0.3C127.5,380.5,133.3,364.9,139.2,349.4z
	 M149.4,292.5c4.1-16.5,8.3-33.5,12.6-50.6C153.7,252.3,147,279.6,149.4,292.5z M156.4,423.4c-3.9,6.1-10.3,38.3-8.7,43.7
	C150.6,462,157.3,428.5,156.4,423.4z M131,436.4c0.3,0.1,0.7,0.1,1,0.2c4.1-15.4,8.1-30.9,12.2-46.3c-0.4-0.1-0.7-0.2-1.1-0.3
	C137,404.9,132,420.1,131,436.4z M268.2,160.7c-0.8-12.2,0.5-14.9,12.4-17.6c-1.4-1.5-2.3-3-3.5-3.6c-3.2-1.4-7.5,0.1-9.7,3
	C263.4,147.5,263.6,155,268.2,160.7z M113.4,364.8c0.5,0.1,0.9,0.2,1.4,0.3c3-14.5,6-29.1,8.9-43.6c-0.4-0.1-0.8-0.2-1.1-0.2
	C117.7,335.3,114.7,349.8,113.4,364.8z M164,439.3c-0.4-0.1-0.8-0.2-1.2-0.2c-1.5,7.2-3,14.5-4.5,21.7c0.5,0.1,0.9,0.2,1.4,0.3
	C161.2,453.9,162.6,446.6,164,439.3z M164.9,470.8c0.4,0.1,0.8,0.2,1.1,0.2c1-4.9,2-9.7,3-14.6c-0.4-0.1-0.8-0.2-1.2-0.2
	C166.9,461,165.9,465.9,164.9,470.8z M433.6,414.3c2.7,0.6,4-0.5,5.1-2.8c9-18.8,18.1-37.5,27.2-56.3c3.2-6.7,6.3-13.4,9.7-20.7
	c-2.7,0-4.8,0.2-6.8-0.1c-2.5-0.4-3.6,0.4-4.7,2.7c-5.8,12.2-11.8,24.3-17.7,36.4c-6.5,13.3-12.9,26.6-19.6,40.3
	C429.4,414,431.6,413.8,433.6,414.3z M424.6,392.3c0.9-1.7,0.7-2.8-0.6-4.3c-3.3-3.5-6.3-7.1-9.7-11c5.4-3.7,10.3-7.5,15.6-10.6
	c6.2-3.6,6.6-10.1,8.4-16c-13.1,8.9-26.2,17.7-39.5,26.7c7.4,8,14.5,15.6,21.8,23.4C422,397.6,423.1,394.9,424.6,392.3z
	 M479.3,350.9c-1.2,2.8-1.9,5.3-3.1,7.5c-1.2,2.3-0.6,3.8,1,5.5c3.2,3.2,6.2,6.6,9.4,10.1c-5.9,3.9-11.2,7.9-17,11
	c-7,3.7-6.8,11.1-9.7,16.9c13.6-9.2,27.1-18.4,40.9-27.8C493.6,366.4,486.6,358.7,479.3,350.9z M365.7,185.9
	c-1.5-0.1-3.2-0.6-4.6-0.2c-7.3,1.8-14.7,2.6-22.2,1.6c-3.6-0.5-5.3,1.6-4.1,5c0.7,1.9,2.3,3.9,4,4.9c2.2,1.3,5,1.8,7.6,2.4
	c2.5,0.6,3.6-0.4,3.5-3.1c-0.1-1.5,0.5-3,0.8-4.5c0.4,0,0.8,0.1,1.2,0.1c0.5,2.2,1,4.5,1.5,6.9C359.8,199.3,364.4,194.8,365.7,185.9
	z M366,166.5l113.4,127.2l49.7-4.1L368.9,166L366,166.5z M322.4,169.9l63.5,131.7l44.7-4L325.6,169.9H322.4z"/>
</svg>
